HIERARCHY
ROOT joint_Root
{
	OFFSET 0.0 0.0 0.0
	CHANNELS 6 Xposition Yposition Zposition Zrotation Xrotation Yrotation 
	JOINT Hips
	{
		OFFSET -0.726466 93.3139 -2.00062
		CHANNELS 6 Xposition Yposition Zposition Zrotation Xrotation Yrotation 
		JOINT Spine
		{
			OFFSET 15.7357 0.0 0.0
			CHANNELS 6 Xposition Yposition Zposition Zrotation Xrotation Yrotation 
			JOINT Chest
			{
				OFFSET 8.98455 -0.406207 0.0
				CHANNELS 6 Xposition Yposition Zposition Zrotation Xrotation Yrotation 
				JOINT Neck
				{
					OFFSET 16.3773 0.0 0.0
					CHANNELS 6 Xposition Yposition Zposition Zrotation Xrotation Yrotation 
					JOINT Head
					{
						OFFSET 6.45672 0.0 0.0
						CHANNELS 6 Xposition Yposition Zposition Zrotation Xrotation Yrotation 
						End Site
						{
							OFFSET 0.0 0.0 0.0
						}
					}
				}
				JOINT Shoulder_L
				{
					OFFSET 12.9942 -0.242716 4.98039
					CHANNELS 6 Xposition Yposition Zposition Zrotation Xrotation Yrotation 
					JOINT UpperArm_L
					{
						OFFSET 5.34809 0.0 0.0
						CHANNELS 6 Xposition Yposition Zposition Zrotation Xrotation Yrotation 
						JOINT LowerArm_L
						{
							OFFSET 24.3286 1.87007e-05 0.0
							CHANNELS 6 Xposition Yposition Zposition Zrotation Xrotation Yrotation 
							JOINT Hand_L
							{
								OFFSET 22.2916 0.0 0.0
								CHANNELS 6 Xposition Yposition Zposition Zrotation Xrotation Yrotation 
								End Site
								{
									OFFSET 0.0 0.0 0.0
								}
							}
						}
					}
				}
				JOINT Shoulder_R
				{
					OFFSET 12.9945 -0.242716 -4.98039
					CHANNELS 6 Xposition Yposition Zposition Zrotation Xrotation Yrotation 
					JOINT UpperArm_R
					{
						OFFSET -5.34813 0.0 0.0
						CHANNELS 6 Xposition Yposition Zposition Zrotation Xrotation Yrotation 
						JOINT LowerArm_R
						{
							OFFSET -24.3289 0.000322201 0.0
							CHANNELS 6 Xposition Yposition Zposition Zrotation Xrotation Yrotation 
							JOINT Hand_R
							{
								OFFSET -22.2915 -0.000108084 0.0
								CHANNELS 6 Xposition Yposition Zposition Zrotation Xrotation Yrotation 
								End Site
								{
									OFFSET 0.0 0.0 0.0
								}
							}
						}
					}
				}
			}
		}
		JOINT UpperLeg_L
		{
			OFFSET -2.19248 -6.46944 0.0
			CHANNELS 6 Xposition Yposition Zposition Zrotation Xrotation Yrotation 
			JOINT LowerLeg_L
			{
				OFFSET 39.0811 0.0 -1.23785e-05
				CHANNELS 6 Xposition Yposition Zposition Zrotation Xrotation Yrotation 
				JOINT Foot_L
				{
					OFFSET 40.9854 0.0 -1.26872e-05
					CHANNELS 6 Xposition Yposition Zposition Zrotation Xrotation Yrotation 
					JOINT Toes_L
					{
						OFFSET 11.7543 0.0 0.0
						CHANNELS 6 Xposition Yposition Zposition Zrotation Xrotation Yrotation 
						End Site
						{
							OFFSET 0.0 0.0 0.0
						}
					}
				}
			}
		}
		JOINT UpperLeg_R
		{
			OFFSET -2.19251 6.46944 0.0
			CHANNELS 6 Xposition Yposition Zposition Zrotation Xrotation Yrotation 
			JOINT LowerLeg_R
			{
				OFFSET -39.0811 -0.00228153 -0.0401928
				CHANNELS 6 Xposition Yposition Zposition Zrotation Xrotation Yrotation 
				JOINT Foot_R
				{
					OFFSET -40.9854 0.0 0.0
					CHANNELS 6 Xposition Yposition Zposition Zrotation Xrotation Yrotation 
					JOINT Toes_R
					{
						OFFSET -11.7543 0.0 0.0
						CHANNELS 6 Xposition Yposition Zposition Zrotation Xrotation Yrotation 
						End Site
						{
							OFFSET 0.0 0.0 0.0
						}
					}
				}
			}
		}
	}
}
MOTION
Frames:	4
Frame Time:	0.0333333
0.000000 0.000000 0.000000 0.000000 0.000000 -0.000000 -0.589968 92.168000 0.308339 88.083800 -2.807860 4.603640 15.735700 0.000005 -0.000001 77.545700 85.676000 -76.034200 8.984550 -0.406207 -0.000000 0.706731 -1.957470 3.033140 16.377300 -0.000001 -0.000001 4.334360 -1.304990 -1.014810 6.456720 -0.000001 -0.000000 2.144270 0.354710 2.954490 12.994200 -0.242716 4.980390 -88.044600 -6.097300 -72.180700 5.348090 -0.000007 -0.000001 -79.539400 -23.876100 -86.834100 24.328600 0.000019 0.000005 9.342890 0.081624 -89.504000 22.291600 -0.000001 0.000005 21.177000 5.584020 -10.429800 12.994500 -0.242716 -4.980390 87.778500 6.786410 -71.826100 -5.348130 -0.000001 -0.000004 -64.458800 37.703600 -14.897000 -24.328900 0.000322 -0.000009 2.236830 7.387640 -16.905000 -22.291500 -0.000108 -0.000004 9.761060 5.409250 -3.240410 -2.192480 -6.469440 -0.000000 -175.468000 -7.238840 -1.047270 39.081100 -0.000007 -0.000012 -0.119477 0.282077 22.955700 40.985400 -0.000006 -0.000013 -0.418484 2.285210 -67.374900 11.754300 -0.000000 0.000003 -0.000048 -0.000543 -16.598600 -2.192510 6.469440 -0.000001 179.385000 11.536600 -179.584000 -39.081100 -0.002282 -0.040193 -0.034462 0.102230 20.283700 -40.985400 0.000008 0.000006 3.485750 7.676000 -66.581800 -11.754300 -0.000006 -0.000006 -0.007508 -0.083966 -19.991800
0.000000 0.000000 0.000000 0.000000 0.000000 -0.000000 -0.599553 92.159200 0.309191 88.079100 -2.770920 4.587450 15.735700 0.000005 -0.000001 77.788100 85.669100 -76.299800 8.984550 -0.406207 -0.000000 0.727038 -1.922940 2.986800 16.377300 -0.000001 -0.000001 4.316130 -1.311940 -1.014840 6.456720 -0.000001 -0.000000 2.063700 0.313096 2.939540 12.994200 -0.242716 4.980390 -88.052100 -6.055550 -72.130900 5.348090 -0.000007 -0.000001 -79.306300 -23.885700 -86.610700 24.328600 0.000019 0.000005 9.381620 0.026640 -89.838800 22.291600 -0.000001 0.000005 21.303300 5.585220 -10.495400 12.994500 -0.242716 -4.980390 87.788100 6.776350 -71.874700 -5.348130 -0.000001 -0.000004 -64.616000 38.034700 -14.895400 -24.328900 0.000322 -0.000009 2.194910 7.188400 -17.037100 -22.291500 -0.000108 -0.000004 9.754550 5.408860 -3.227600 -2.192480 -6.469440 -0.000000 -175.461000 -7.247590 -1.107110 39.081100 -0.000007 -0.000012 -0.117563 0.276585 23.028200 40.985400 -0.000006 -0.000013 -0.403624 2.351100 -67.405400 11.754300 -0.000000 0.000003 -0.000043 -0.000500 -16.597000 -2.192510 6.469440 -0.000001 179.407000 11.514400 -179.617000 -39.081100 -0.002282 -0.040193 -0.033239 0.098618 20.341100 -40.985400 0.000008 0.000006 3.506090 7.608240 -66.625000 -11.754300 -0.000006 -0.000006 -0.007966 -0.087755 -20.146500
0.000000 0.000000 0.000000 0.000000 0.000000 -0.000000 -0.602032 92.177300 0.299431 88.134500 -2.731480 4.572790 15.735700 0.000005 -0.000001 78.272600 85.668500 -76.835300 8.984550 -0.406207 -0.000000 0.741561 -1.848270 2.884490 16.377300 -0.000001 -0.000001 4.257670 -1.327950 -1.053160 6.456720 -0.000001 -0.000000 2.040230 0.243847 3.000750 12.994200 -0.242716 4.980390 -88.046400 -6.064060 -72.105200 5.348090 -0.000007 -0.000001 -78.917400 -23.935500 -86.075100 24.328600 0.000019 0.000005 9.225730 -0.071056 -90.437700 22.291600 -0.000001 0.000005 21.502300 5.586940 -10.590500 12.994500 -0.242716 -4.980390 87.780900 6.793450 -71.862500 -5.348130 -0.000001 -0.000004 -64.857100 38.220200 -14.776000 -24.328900 0.000322 -0.000009 2.227410 7.260680 -17.113600 -22.291500 -0.000108 -0.000004 9.760320 5.406390 -3.146120 -2.192480 -6.469440 -0.000000 -175.517000 -7.273910 -1.046680 39.081100 -0.000007 -0.000012 -0.115877 0.274839 22.861300 40.985400 -0.000006 -0.000013 -0.398918 2.377520 -67.317100 11.754300 -0.000000 0.000003 -0.000044 -0.000505 -16.597200 -2.192510 6.469440 -0.000001 179.364000 11.560100 -179.613000 -39.081100 -0.002282 -0.040193 -0.031621 0.094607 20.271200 -40.985400 0.000008 0.000006 3.539900 7.598010 -66.582200 -11.754300 -0.000006 -0.000006 -0.007541 -0.084241 -20.003000
0.000000 0.000000 0.000000 0.000000 0.000000 -0.000000 -0.615445 92.170500 0.293161 88.104400 -2.674060 4.511500 15.735700 0.000005 -0.000001 78.588200 85.667500 -77.158400 8.984550 -0.406207 -0.000000 0.752214 -1.801310 2.869450 16.377300 -0.000001 -0.000001 4.220760 -1.302150 -1.086000 6.456720 -0.000001 -0.000000 1.917580 0.244650 2.920890 12.994200 -0.242716 4.980390 -88.062400 -5.990500 -72.039100 5.348090 -0.000007 -0.000001 -78.273000 -24.107700 -85.016100 24.328600 0.000019 0.000005 8.920990 -0.224062 -91.427400 22.291600 -0.000001 0.000005 21.485500 5.588240 -10.663600 12.994500 -0.242716 -4.980390 87.780100 6.792770 -71.854100 -5.348130 -0.000001 -0.000004 -65.060700 38.375800 -14.696500 -24.328900 0.000322 -0.000009 2.222820 7.253360 -17.096500 -22.291500 -0.000108 -0.000004 9.753820 5.406230 -3.141130 -2.192480 -6.469440 -0.000000 -175.501000 -7.120910 -1.166310 39.081100 -0.000007 -0.000012 -0.115991 0.274021 22.942700 40.985400 -0.000006 -0.000013 -0.425283 2.313020 -67.345500 11.754300 -0.000000 0.000003 -0.000051 -0.000579 -16.600000 -2.192510 6.469440 -0.000001 179.405000 11.596400 -179.686000 -39.081100 -0.002282 -0.040193 -0.033788 0.100363 20.291700 -40.985400 0.000008 0.000006 3.502120 7.583160 -66.584400 -11.754300 -0.000006 -0.000006 -0.007553 -0.084343 -20.007200
